<?xml version="1.0" encoding="UTF-8" standalone="no"?>
<svg
   version="1.0"
   width="1560pt"
   height="1560pt"
   viewBox="-180 -180 1560 1560"
   preserveAspectRatio="xMidYMid"
   id="svg2"
   sodipodi:docname="logo.svg"
   inkscape:version="1.4.3 (0d15f75, 2025-12-25)"
   xmlns:inkscape="http://www.inkscape.org/namespaces/inkscape"
   xmlns:sodipodi="http://sodipodi.sourceforge.net/DTD/sodipodi-0.dtd"
   xmlns="http://www.w3.org/2000/svg"
   xmlns:svg="http://www.w3.org/2000/svg">
  <defs
     id="defs2" />
  <sodipodi:namedview
     id="namedview2"
     pagecolor="#ffffff"
     bordercolor="#000000"
     borderopacity="0.25"
     inkscape:showpageshadow="2"
     inkscape:pageopacity="0.0"
     inkscape:pagecheckerboard="0"
     inkscape:deskcolor="#d1d1d1"
     inkscape:document-units="pt"
     inkscape:zoom="0.3110636"
     inkscape:cx="1178.2156"
     inkscape:cy="964.43299"
     inkscape:window-width="1920"
     inkscape:window-height="1001"
     inkscape:window-x="-9"
     inkscape:window-y="-9"
     inkscape:window-maximized="1"
     inkscape:current-layer="svg2" />
  <metadata
     id="metadata1">
Created by potrace 1.16, written by Peter Selinger 2001-2019
</metadata>
  <g
     transform="matrix(0.1,0,0,-0.1,-425.13732,1500.4667)"
      fill="#000000"
     stroke="none"
     id="g2">
    <path
       d="m 9325,14408 c -41,-14 -89,-52 -117,-90 l -23,-33 -5,-704 -5,-705 -200,-32 c -897,-142 -1650,-418 -2245,-822 -184,-125 -281,-198 -410,-306 -513,-432 -860,-896 -1095,-1461 -160,-386 -236,-739 -250,-1175 -19,-549 82,-1059 309,-1554 50,-110 164,-308 262,-456 220,-334 597,-705 1000,-984 187,-130 523,-310 776,-415 502,-209 1187,-372 1786,-426 l 72,-7 v -750 c 0,-822 -4,-772 62,-835 69,-67 9,-63 1059,-63 h 952 l 43,25 c 26,15 54,43 69,69 l 25,43 v 756 c 0,416 4,758 8,761 5,3 67,12 138,21 229,28 606,100 834,159 392,101 796,259 1135,442 442,239 717,442 1009,749 320,336 499,587 672,943 86,176 115,248 173,421 122,362 171,684 171,1116 0,319 -32,566 -114,896 -128,512 -386,1018 -715,1402 -301,351 -630,628 -1001,842 -368,212 -708,350 -1135,460 -371,95 -617,140 -959,175 -109,11 -202,23 -207,26 -6,3 -9,286 -8,688 1,630 0,686 -16,720 -23,48 -86,97 -138,107 -65,13 -1876,10 -1912,-3 z m 1765,-448 v -160 h -199 c -178,0 -201,-2 -222,-18 -28,-23 -30,-73 -4,-102 17,-19 30,-20 222,-20 h 203 v -150 -150 h -359 -360 l -20,-26 c -29,-37 -27,-78 5,-103 26,-20 38,-21 380,-21 h 354 v -146 -146 l -206,3 c -194,4 -207,3 -220,-15 -23,-32 -21,-71 4,-99 14,-16 36,-18 216,-17 l 201,2 3,-144 2,-143 h -199 c -192,0 -201,-1 -222,-22 -26,-26 -28,-67 -4,-93 17,-19 32,-20 222,-20 h 203 v -150 -150 h -203 c -223,0 -227,-1 -242,-62 -5,-21 -1,-33 19,-52 l 25,-26 h 201 201 l -3,-141 -3,-141 -198,2 -197,1 -25,-25 c -29,-29 -32,-62 -9,-94 15,-22 19,-22 225,-22 h 209 v -140 -140 h -204 -205 l -20,-26 c -26,-33 -26,-52 -1,-84 l 19,-25 205,-3 206,-3 v -145 -144 h -357 c -352,0 -357,0 -380,-22 -24,-23 -30,-66 -13,-98 19,-36 63,-40 411,-40 h 339 v -140 -140 h -203 c -192,0 -205,-1 -222,-20 -24,-27 -24,-79 0,-96 14,-11 67,-14 222,-14 h 203 v -150 -150 h -204 c -173,0 -207,-2 -220,-16 -25,-25 -30,-61 -12,-89 l 16,-25 h 210 211 l -3,-152 -3,-153 -202,-3 -202,-2 -20,-27 c -12,-14 -21,-31 -21,-38 0,-7 9,-24 21,-38 l 20,-27 202,-2 202,-3 3,-147 3,-148 -367,-2 -367,-3 -20,-27 c -23,-30 -18,-67 13,-98 19,-19 35,-20 380,-20 h 360 v -155 -155 h -202 c -173,0 -204,-2 -220,-17 -22,-20 -23,-70 -1,-95 15,-16 35,-18 220,-18 h 203 v -150 -150 h -199 c -175,0 -201,-2 -219,-17 -33,-28 -37,-64 -11,-97 l 22,-28 201,3 201,4 3,-150 3,-150 -205,3 -204,3 -21,-27 c -26,-34 -27,-54 0,-88 l 20,-26 h 205 204 v -150 -150 h -365 -365 l -14,-22 c -14,-22 -20,-48 -17,-75 0,-7 11,-21 23,-33 21,-19 33,-20 380,-20 h 358 v -145 -145 h -204 -205 l -20,-26 c -26,-33 -26,-55 -2,-85 19,-24 21,-24 223,-24 h 203 l 3,-144 3,-143 -189,7 c -104,4 -199,4 -211,0 -20,-6 -51,-51 -51,-75 0,-6 11,-22 25,-35 24,-25 25,-25 225,-25 h 201 l -3,-147 -3,-148 -204,-5 -204,-5 -21,-28 c -20,-27 -20,-28 -2,-61 10,-20 29,-37 43,-41 13,-3 107,-3 209,1 l 185,7 -3,-149 -3,-149 h -204 c -201,-1 -204,-1 -222,-24 -25,-30 -24,-66 2,-92 20,-20 29,-21 222,-17 l 202,3 3,-142 3,-143 h -359 c -276,0 -362,-3 -376,-13 -9,-7 -20,-31 -23,-53 -5,-36 -2,-43 22,-62 27,-22 34,-22 381,-22 h 354 v -150 -150 h -204 -205 l -20,-26 c -27,-35 -26,-59 4,-89 24,-25 25,-25 225,-25 h 200 v -142 -143 h -206 c -204,0 -206,0 -225,-24 -23,-28 -24,-59 -3,-89 15,-22 19,-22 225,-22 h 209 v -135 -135 h -805 -805 v 5115 5115 h 805 805 z m 625,-1401 c 410,-50 818,-143 1151,-263 442,-160 857,-396 1178,-672 614,-527 990,-1179 1135,-1969 75,-412 60,-951 -39,-1330 -75,-285 -128,-431 -235,-650 -119,-243 -257,-450 -446,-671 -132,-153 -419,-425 -567,-536 -524,-392 -1230,-696 -1947,-837 -154,-31 -409,-74 -503,-86 l -52,-7 2,537 3,538 115,23 c 366,76 752,256 1058,494 418,324 739,812 867,1319 105,415 110,902 14,1289 -78,316 -171,535 -331,780 -336,510 -816,846 -1443,1007 -71,18 -165,39 -207,45 l -78,13 v 505 505 l 83,-7 c 45,-4 154,-16 242,-27 z m -2535,-488 v -509 l -42,-7 c -63,-10 -197,-48 -328,-94 -397,-137 -710,-329 -1017,-625 -256,-245 -464,-535 -592,-823 -95,-211 -148,-386 -188,-618 -21,-123 -24,-481 -4,-655 64,-580 314,-1078 733,-1458 208,-189 377,-308 583,-410 208,-103 530,-211 735,-248 52,-9 101,-18 108,-20 9,-3 12,-119 12,-539 v -535 l -37,5 c -21,3 -123,16 -228,30 -240,32 -376,56 -590,106 -646,151 -1144,359 -1622,676 -176,117 -327,244 -508,427 -268,271 -426,487 -579,786 -136,269 -191,416 -257,690 -55,230 -73,410 -73,730 -1,290 3,338 50,600 57,318 183,651 364,965 296,515 773,988 1337,1325 222,134 422,230 758,367 212,87 581,194 920,268 105,22 398,71 448,74 16,1 17,-30 17,-508 z m 2356,-816 c 562,-127 971,-395 1301,-855 138,-192 263,-479 328,-750 72,-304 74,-717 5,-1035 -50,-229 -158,-494 -281,-687 -224,-350 -553,-642 -934,-828 -154,-76 -255,-112 -547,-196 -17,-5 -18,104 -18,2185 0,2018 1,2191 16,2191 9,0 68,-11 130,-25 z m -2359,-1086 -2,-1089 h -137 -138 v -80 -80 h 141 142 l -9,-147 c -10,-189 -10,-162 0,-1069 5,-424 7,-778 3,-787 -5,-12 -29,-9 -164,24 -378,90 -670,232 -959,464 -94,76 -226,193 -221,196 1,0 38,3 82,5 44,2 94,7 112,10 56,9 83,76 46,116 -14,16 -34,18 -183,18 -182,0 -176,-2 -228,67 -40,52 -142,213 -142,225 0,4 68,8 150,8 h 150 v 71 71 l -181,-3 -181,-4 -18,36 c -18,35 -80,231 -80,253 0,8 60,11 207,9 115,0 200,1 191,4 -15,4 -18,16 -18,69 v 64 h -205 -205 l -6,25 c -9,36 -31,259 -27,268 2,4 85,7 184,7 h 179 v 34 c 0,18 3,54 6,80 l 7,46 h -190 -190 l 4,78 c 5,94 20,227 35,305 l 11,57 h 203 204 v 75 75 h -185 c -102,0 -185,1 -185,3 0,1 22,61 49,132 l 49,130 181,3 181,2 v 25 c 0,14 5,25 10,25 6,0 10,25 10,56 v 56 l -140,-4 c -77,-1 -140,1 -140,6 0,13 150,239 168,254 11,8 60,12 161,12 163,0 181,7 181,67 0,58 -26,73 -131,73 h -91 l 106,101 c 131,125 217,193 371,296 153,102 220,139 375,206 149,65 435,159 452,150 5,-2 7,-494 5,-1094 z"
       id="path1" />
    <path
       d="m 7960,8530 c 0,-5 7,-10 16,-10 8,0 12,5 9,10 -3,6 -10,10 -16,10 -5,0 -9,-4 -9,-10 z"
       id="path2" />
  </g>
</svg>
